<?xml version="1.0" encoding="UTF-8"?>
<svg id="Capa_1" xmlns="http://www.w3.org/2000/svg" version="1.1" viewBox="0 0 44.87 44.87">
  <!-- Generator: Adobe Illustrator 30.1.0, SVG Export Plug-In . SVG Version: 2.1.1 Build 136)  -->
  <defs>
    <style>
      .st0 {
        fill: #a9390a;
      }
    </style>
  </defs>
  <path class="st0" d="M19.9,40.85l.79-.03-.78-3.42h3.54l-.36-3.68,3.13.62v-3.5l4.17.54-2.56-4.37v-1.35l11.88,3.07-3.03,3.04c-3.02.48-5.74,1.95-7.8,4.19-1.78,1.94-2.96,4.37-3.39,6.99l-3.33,1.38-5.57-3.33c.43-.07.79-.05,1.18-.07l1.07-.05,1.06-.04h0ZM18.61,31.85l-3.5-1.45-.56,3.11-3.46-1.43v3.5l-3.36-3.34,2.66-7.85,8.39-4.88v-.93l-1.47-.61v-2.19l9.03-6.5,2.76,2.77,11.02-5.88-2.02,9.01,2.72.61-4.3,5.28,1.16.97,3.44.02-3.81,4.83-10.57-3.56-1.22,3.61h-3.58v2.75l-3.34-1.38v3.54h0ZM19.81,20.76l5.54-2.3,1.86-4.5-7.4,4.23v2.57ZM29.11,10.17l-1.82-1.81,7.83-7.83v6.44s-6.01,3.2-6.01,3.2ZM6.47,30.98l-2.72-2.72,4.54-2.63-1.82,5.35Z"/>
</svg>