<?xml version="1.0" encoding="UTF-8"?>
<svg id="Capa_1" xmlns="http://www.w3.org/2000/svg" version="1.1" viewBox="0 0 44.87 44.87">
  <!-- Generator: Adobe Illustrator 30.1.0, SVG Export Plug-In . SVG Version: 2.1.1 Build 136)  -->
  <defs>
    <style>
      .st0 {
        fill: #b9b190;
      }
    </style>
  </defs>
  <path class="st0" d="M24.28.63c2.04,0,4,.81,5.8,1.84,4.04,2.31,6.8,6.53,7.07,11.22.16,2.81-.04,5.63.06,8.5l-2.07-2.05v-7.38l-12.72,5.26-12.71-5.26v7.38l-2.08,2.06c.11-2.84-.11-5.61.06-8.35.42-7.09,6-12.56,12.92-13.2h3.67v-.02ZM27.41,38.81l-1.64-1.62h-6.67l-3.63,3.61-2.35-1.16-.52-.26-3.07-7.4c-2.22-.42-4.17-1.87-5.09-3.96-.32-.73-.32-1.53-.46-2.3-.02-1.12,0-2.32.32-3.4.12-.38.54-.59.88-.63.41-.04.8.14,1.01.48l1.46,1.46,3.11-3.1v-6.23l11.67,4.83,6.18-2.57,5.48-2.27v6.23l3.11,3.1,1.46-1.46c.22-.33.61-.52,1.01-.48.34.03.76.24.88.62.29.94.37,2.2.33,3.21-.11.82-.13,1.7-.46,2.47-.91,2.11-2.87,3.56-5.1,3.98l-3.07,7.39-2.85,1.41-2-1.99v.04ZM16.3,30.88c1.13-.15,2.14-.62,2.97-1.39-.48-2.15-1.99-3.94-4.04-4.8-.44-.19-.83-.29-1.33-.26-1.44.08-2.72.95-3.32,2.25.45,2.26,2.27,3.94,4.55,4.2,0,0,1.17,0,1.17,0ZM29.72,30.88c2.27-.25,4.11-1.92,4.55-4.2-.67-1.44-2.34-2.55-3.97-2.17-2.4.56-4.17,2.65-4.71,4.97,1.12,1.09,2.67,1.56,4.13,1.4ZM25.06,42.94l-2.64,1.3-2.69-1.33-2.26-1.11,2.47-2.47h4.97l2.47,2.47-2.32,1.14Z"/>
</svg>