<?xml version="1.0" encoding="UTF-8"?>
<svg id="Capa_1" xmlns="http://www.w3.org/2000/svg" version="1.1" viewBox="0 0 44.87 44.87">
  <!-- Generator: Adobe Illustrator 30.1.0, SVG Export Plug-In . SVG Version: 2.1.1 Build 136)  -->
  <defs>
    <style>
      .st0 {
        fill: #beacac;
      }
    </style>
  </defs>
  <g>
    <path class="st0" d="M25.25,43.88c1.24-.11,2.32-.5,3.07-1.39.79-.95,1.09-2.16.72-3.43,1.57-.71,2.98-1.55,4.35-2.78.93,1.77,1.04,3.84.55,5.79-2.43,1.91-5.57,2.71-8.68,1.81h0Z"/>
    <path class="st0" d="M33.89,34.02c-3.2,3.51-7.06,6.28-11.45,8.31-4.35-1.95-8.25-4.82-11.54-8.33l1.92-.11c1.82-.23,3.5-.86,5.04-1.97l-9.72-5.96.15,3.44.06,1.37c-1.79-1.12-2.81-2.93-3.17-5.01.16-2.9,1.27-5.66,3.35-7.91,3.64,4.9,8.36,8.71,13.87,11.27,5.55-2.55,10.2-6.37,13.9-11.27,1.91,2.17,3.24,4.8,3.3,7.68.05,2.17-1.43,4.12-3.13,5.31l.07-1.54.08-1.23c.04-.67.03-1.3,0-2.05l-9.64,5.92c2.04,1.5,4.3,2.03,6.91,2.08h0Z"/>
    <path class="st0" d="M19.57,43.9c-3.06.87-6.27.06-8.65-1.85-.56-1.96-.37-3.9.49-5.79,1.33,1.19,2.76,2.11,4.39,2.8-.39,1.23-.09,2.42.63,3.36s1.79,1.31,3.13,1.47h.01Z"/>
  </g>
  <g>
    <path class="st0" d="M29.73,14.31c-1.4,4.06-3.88,7.52-7.3,10.19-3.37-2.6-5.93-6.1-7.33-10.19,1.92-.67,3.9-1.09,5.96-1.16.94-.12,1.82-.11,2.77,0,2.02.09,3.97.51,5.9,1.16Z"/>
    <path class="st0" d="M36.41,15.18c-2.95,2.86-6.17,5.63-10.18,7.62,4.91-5.43,8.14-11.82,9.21-19.06,2.48-.35,4.42-1.57,6.56-3.12-1.67,5.36-4.49,10.06-8.15,14.23.18.1.59.29.79.3l1.77.04h0Z"/>
    <path class="st0" d="M8.48,15.21l1.56-.06c.27-.01.58-.12.95-.32C7.39,10.7,4.49,5.98,2.88.64c2.09,1.57,4.04,2.73,6.5,3.11,1.08,7.18,4.23,13.58,9.21,19.05-3.87-1.98-7.05-4.62-10.1-7.59h-.01Z"/>
  </g>
</svg>