<?xml version="1.0" encoding="UTF-8"?>
<svg id="Capa_1" xmlns="http://www.w3.org/2000/svg" version="1.1" viewBox="0 0 44.87 44.87">
  <!-- Generator: Adobe Illustrator 30.1.0, SVG Export Plug-In . SVG Version: 2.1.1 Build 136)  -->
  <defs>
    <style>
      .st0 {
        fill: #54b633;
      }
    </style>
  </defs>
  <path class="st0" d="M41.51,15.17l-10.97,5.82-6.47,10.71,1.6-8.44-3.23-1.34-3.24,1.33,1.61,8.45-6.47-10.72L3.36,15.17l4.62-4.63,5.64,5.64,5.33-2.79-9.43-3.9V.64l5.45,3.52,2.03-2.03,5.43,5.43,5.44-5.43,2.03,2.03,5.45-3.51v8.84l-9.42,3.9,5.33,2.79,5.63-5.63,1.35,1.34,3.27,3.28ZM31.85,22.51l6.75-2.78-.93,2.31-3.71,1.52-6.48,15.66-5.05,5.03-1.75-1.76-3.28-3.27-6.49-15.66-3.71-1.53-.93-2.31,6.76,2.79,5.25,12.69,2.8-1.16v4.94l1.35,1.36,1.36-1.35v-4.95l2.81,1.15,5.25-12.68Z"/>
</svg>