<?xml version="1.0" encoding="UTF-8"?>
<svg id="Capa_1" xmlns="http://www.w3.org/2000/svg" version="1.1" viewBox="0 0 26.74 44.87">
  <!-- Generator: Adobe Illustrator 30.1.0, SVG Export Plug-In . SVG Version: 2.1.1 Build 136)  -->
  <defs>
    <style>
      .st0 {
        fill: #5b7acc;
      }
    </style>
  </defs>
  <path class="st0" d="M12.22,25.01c-2.02-4.72.18-10.33,4.99-12.39-.16,2.85.96,5.71,3.09,7.64l-.09-.83-.05-.62c-.03-.37-.02-.74,0-1.1.11-1.42.38-2.8,1.04-4.14.19,2.99,1.32,5.76,3.29,8.01l-1.21,1.03c-.13.11-.26.22-.38.34l-1.26,1.19-.92.98c-3.14,3.46-5.46,7.47-6.94,12.05-1.79-5.87-5.12-10.92-9.71-14.86,2.81-3.16,4.42-7.05,4.68-11.22-3.06,1.46-5.3,4.03-6.52,7.24C3.06,11.45,6.71,5.18,12.32.99c-.2.87-.43,1.67-.45,2.55-.06.45-.06.87,0,1.32.05.84.2,1.63.45,2.45,1.39-.78,3.18-.46,4.17.75-4.37,4.23-6.99,9.96-7.41,15.93,1.14,2.7,2.68,5.08,4.76,7.12,2.07-2.01,3.67-4.46,4.77-7.15.11-1.45-.4-2.81-1.37-3.89-.52-.58-1.17-.97-1.91-1.3-1.75.8-2.94,2.42-3.19,4.34-.05.38-.06.77-.01,1.15l.08.72v.03ZM7.31,42.82c-.24.05-.49.09-.71.02-1.5-.5-2.71-1.74-3.07-3.32,1.65,1.44,3.75,2.05,5.89,1.64-1.24-1.05-2.74-1.81-4.4-2.2-1.03-1.26-1.67-2.78-1.82-4.41-.05-.57-.1-1.09.03-1.67,1.09,3.14,3.5,5.55,6.75,6.51-.89-2.03-2.13-3.81-3.72-5.28-.64-1.56-1.05-3.15-1.16-4.82l-.04-.57c-.03-.46-.03-.92,0-1.37l.04-.57c.04-.58.1-1.14.26-1.72.74,6.02,4.12,11.19,9.3,14.3,1.78-.09,3.43-.9,4.59-2.25.07-.04.24-.24.2-.31-1.35-2.35-.76-5.37,1.45-7.01-.92,3.37.07,6.79,2.59,9.13l-.76.04c-2.71.18-4.82,2.23-5.16,4.92-.1-.78-.26-1.39-.76-1.96-.58-.66-1.46-1.04-2.35-.97-1.55.13-2.69,1.38-2.69,2.92-1.55-.88-2.71-1.12-4.46-1.05Z"/>
</svg>