<?xml version="1.0" encoding="UTF-8"?>
<svg id="Capa_1" xmlns="http://www.w3.org/2000/svg" version="1.1" viewBox="0 0 44.87 44.87">
  <!-- Generator: Adobe Illustrator 30.1.0, SVG Export Plug-In . SVG Version: 2.1.1 Build 136)  -->
  <defs>
    <style>
      .st0 {
        fill: #900072;
      }
    </style>
  </defs>
  <path class="st0" d="M16.06,19.92l.04.74c.23,4.26,1.75,8.27,4.3,11.75-1.6-.62-3.09-1.72-4.22-2.88-1.55-1.59-2.62-3.52-3.21-5.72-.91,1.27-1.21,2.61-1.11,4.12l.04.46c-1.71-.48-3-1.57-4.02-3.06.55,4.79,2.65,9.18,5.84,12.6,1.2,1.29,2.48,2.46,3.97,3.37l2.07,1.26c-8.97-1.37-16.29-9.55-16.69-18.45l-.04-.92v-.49l.04-1.49c.03-1.3.3-2.57.67-3.84,1.33,1.24,2.65,1.68,4.4,1.55,2.43-.32,4.32-2.21,4.6-4.66.33-2.94-1.88-5.59-4.86-5.83-.94-.08-1.83.13-2.75.56.33-2.49,2.57-4.33,5.09-4.17,1.79,1.43,3.06,3.34,3.67,5.52,1.41-3.91,4.57-6.88,8.53-8.05,3.96,1.17,7.1,4.12,8.54,8.04.67-2.24,1.91-4.11,3.7-5.51,2.5-.13,4.71,1.65,5.07,4.17-.9-.42-1.82-.64-2.76-.56-2.87.23-5.04,2.67-4.88,5.55.14,2.57,2.11,4.63,4.66,4.95,1.72.12,3.06-.32,4.37-1.55.46,1.61.62,3.01.73,4.64v1.27c0,.32-.07.62-.09.92-.62,9.15-7.51,16.74-16.46,18.32-.14.02-.12.02-.16.02-.02,0-.02-.04,0-.05l.09-.05c6.47-3.41,10.94-9.9,11.76-17.22-.92,1.53-2.32,2.65-4.05,3.16l.07-.66c.1-.58-.06-.44,0-.97-.12-1.06-.47-2.08-1.12-2.96-1.02,3.86-3.71,7.05-7.44,8.61,2.55-3.49,4.04-7.44,4.3-11.66.01-.23,0-.4.05-.63-.04-.37.09-.81-.01-1.19-.86-3.39-3.22-6.18-6.35-7.69-3.17,1.52-5.51,4.34-6.37,7.74-.04.28-.01.62,0,.92v.02ZM21.28,20.89c-1.03.37-2.18.16-3.07-.49-.43-.82-.4-1.79.12-2.62,1.08.93,2.01,1.92,2.95,3.1h0ZM26.67,20.38c-.88.69-2.02.86-3.1.53.9-1.15,1.85-2.18,2.97-3.12.5.79.54,1.74.14,2.59h0Z"/>
</svg>