<?xml version="1.0" encoding="UTF-8"?>
<svg id="Capa_1" xmlns="http://www.w3.org/2000/svg" version="1.1" viewBox="0 0 52.04 40.57">
  <!-- Generator: Adobe Illustrator 30.1.0, SVG Export Plug-In . SVG Version: 2.1.1 Build 136)  -->
  <defs>
    <style>
      .st0 {
        fill: #a71b2a;
      }
    </style>
  </defs>
  <path class="st0" d="M24.38,34.77l-.04.64v2.32l.09,1.13-5.14-.81c1.43-6.86,4.23-13.83,7.97-19.72,1.46-2.29,2.41-4.81,2.77-7.52-1.89-.91-3.18-2.85-3.38-4.99-.04-.4-.05-.76,0-1.14l.08-.62c3.37,1.43,6.93,2.1,10.57,2.45,1.98.19,3.96-.28,5.22-1.96.31-.96-.14-2.15-1-2.86,4.74.72,8.08,5,7.72,9.76-.24,3.16-2.09,5.99-4.9,7.45-4.5,1.92-7.47,6.49-7.02,11.36l.11,1.21c-1.69-2.09-3.05-4.35-4.11-6.8-.02-.53,0-1.05.02-1.56l.04-.97.05-.94.05-.65.06-.69.15-1.61c1.25.51,2.63-.06,3.19-1.25s.07-2.66-1.15-3.28l-2.66-1.34c-1.34,3.84-3.01,7.49-5.08,10.95s-3.35,7.38-3.62,11.45h.01ZM36.26,25.41c.24-2.07,1.27-3.89,2.78-5.28,2.89-2.68,4.6-6.37,4.87-10.29.04-.61.04-1.17,0-1.78l-.04-.6c-2.17.42-4.25.6-6.47.54l-.9-.07c-2.89-.21-5.66-.83-8.44-1.9,1.11,3.04,4.07,4.87,7.2,4.66.31-.06.59-.06.91,0,1.8.21,3.24,1.71,3.32,3.53.13,3.02-1.88,5.64-4.81,6.3-.15.51-.23,1.02-.29,1.55-.04.39,0,.76.02,1.17.13,1.59.8,3.07,1.84,4.28l-.05-.81c-.02-.37.02-.9.06-1.29h0ZM18.96,12.37l-2.43,1.21c-1.26.63-1.97,1.95-1.44,3.28.5,1.26,1.94,1.92,3.24,1.39l.17,1.8.06.74.05.75.04.84.03.65.02,1.65c-1.08,2.42-2.39,4.7-4.13,6.79.88-5.34-1.98-10.47-6.88-12.57-3.18-1.66-5.07-5.01-4.91-8.61.2-4.3,3.41-7.94,7.72-8.6-.77.65-1.15,1.51-1.07,2.48.02.22.05.48.24.59,1.23,1.45,3.05,1.92,4.86,1.75,3.68-.33,7.26-1.01,10.75-2.46.56,2.68-.85,5.62-3.29,6.74.28,2.17.95,4.19,1.94,6.12l1.38,2.29-1.77,3.28c-1.86-3.24-3.35-6.56-4.59-10.13v.02ZM13.08,20.21c2.02,1.85,3.03,4.5,2.72,7.27,1.69-1.91,2.26-4.52,1.56-6.96-2.6-.58-4.54-2.76-4.79-5.43-.34-2.14,1.14-4.12,3.29-4.4.31-.05.6-.05.9,0,3.19.23,6.12-1.67,7.22-4.67-2.71,1.07-5.51,1.71-8.38,1.91l-.81.06c-2.23.09-4.44-.1-6.64-.53l-.04.74c-.03.52-.02,1.01,0,1.53.24,3.99,1.98,7.76,4.96,10.48h.01ZM27.69,37.81c.06-.89.05-1.73,0-2.6l-.04-.7-.06-.69c-.21-1.74-.54-3.41-1.08-5.09.48-1.36,1.07-2.66,1.81-3.93,2,4.26,3.46,8.64,4.45,13.25l-5.16.82.04-.47.04-.58h0Z"/>
</svg>