<?xml version="1.0" encoding="UTF-8"?>
<svg id="Capa_1" xmlns="http://www.w3.org/2000/svg" version="1.1" viewBox="0 0 44.87 44.87">
  <!-- Generator: Adobe Illustrator 30.1.0, SVG Export Plug-In . SVG Version: 2.1.1 Build 136)  -->
  <defs>
    <style>
      .st0 {
        fill: #b4aab3;
      }
    </style>
  </defs>
  <path class="st0" d="M16.7,33.62v3.95c-5.65-6.22-8.97-14.12-9.55-22.44l-.05-.79-.03-1.57v-.44l.03-1.49.03-.74h4.01l2.51,2.52h-4.05v1.47c.03.26.05.51.05.78l.05.64c.56,6.56,2.96,12.82,6.99,18.11h0ZM28.21,37.54v-3.94c4.08-5.38,6.58-11.84,6.99-18.59l.05-.78.02-1.1c.02-.17.04-.33.04-.5h-4.08l2.5-2.52h4.01l.04.64.03,1.21c0,.4,0,.79,0,1.19l-.03,1.22-.04.73-.05.63c-.67,8.1-4,15.76-9.47,21.8h0ZM23.48,18.42l2.29-2.24v23.8l-3.34,4.06-3.3-4v-23.83l2.29,2.25v20.38l1.01,1.21,1.05-.99v-20.64ZM22.41,11.39l-1.3,1.3-1.98,1.98-4.55-4.56h6.66v-5.85l-1.12-1.11,2.31-2.32,2.31,2.31-1.12,1.12v5.85h6.66l-4.55,4.55-.8-.79-2.52-2.48ZM19.91,15.44l2.52-2.52,2.52,2.52-2.52,2.52-2.52-2.52Z"/>
</svg>