<?xml version="1.0" encoding="UTF-8"?>
<svg id="Capa_1" xmlns="http://www.w3.org/2000/svg" version="1.1" viewBox="0 0 44.87 44.87">
  <!-- Generator: Adobe Illustrator 30.1.0, SVG Export Plug-In . SVG Version: 2.1.1 Build 136)  -->
  <defs>
    <style>
      .st0 {
        fill: #4a8857;
      }
    </style>
  </defs>
  <path class="st0" d="M22.42,43.88l-6.36-8.26c2.92-.39,5.06-2.81,5.09-5.75-1.25-2.09-3.77-3.06-6.09-2.32s-3.75,2.83-3.68,5.29c-5.09-5.35-5.85-13.59-1.87-19.8.09.16.05.35.02.53-.05.3.02.62.03.93.13,3.02,1.59,5.65,3.72,7.7.98.94,2.06,1.67,3.54,1.44,1.2-.19,2.39-.98,2.89-2.23l-5.19-12.52L22.42.99l7.9,7.89-5.19,12.51c.49,1.24,1.66,2.01,2.84,2.22,1.48.26,2.57-.46,3.56-1.4,2.66-2.55,3.93-5.46,3.79-9.22,4.04,6.23,3.24,14.48-1.86,19.83.1-2.45-1.41-4.56-3.63-5.29s-4.83.2-6.13,2.29c0,2.92,2.15,5.39,5.1,5.77l-6.38,8.27v.02ZM27.53,25.81c.51,0,.95-.04,1.42.01,2.25.24,4.17,1.55,5.26,3.57,1.33-2.15,2.04-4.54,2.16-7.01.02-.33.06-.6,0-.91,0-1.01-.11-2.06-.38-3.05-.78,2.06-1.95,3.82-3.52,5.32-1.11,1.06-2.71,1.6-4.25,1.44-2.19-.2-4.05-1.72-4.69-3.8l2.09-9.18-3.18-5.81-3.17,5.81,2.09,9.2c-.68,2.1-2.52,3.59-4.7,3.78-1.85.16-3.43-.53-4.68-1.87-1.33-1.43-2.39-3.01-3.07-4.9-.39,1.25-.46,3.13-.37,4.45.17,2.33.89,4.54,2.13,6.56,1.32-2.48,3.86-3.84,6.67-3.59,2.15.24,3.97,1.4,5.1,3.24,1.14-1.87,2.98-3,5.1-3.25h0ZM22.42,41.4l3.86-4.99c-1.92-.94-3.27-2.62-3.85-4.7-.58,2.12-1.96,3.76-3.85,4.7l3.84,4.99ZM22.42,19.84l-1.7-7.46,1.7-3.13,1.72,3.13-1.72,7.46ZM22.43,26.84c-.65-.68-1.37-1.18-2.21-1.62.99-.73,1.69-1.65,2.21-2.78.5,1.13,1.23,2.04,2.21,2.79-.81.42-1.54.9-2.21,1.61Z"/>
</svg>