<?xml version="1.0" encoding="UTF-8"?>
<svg id="Capa_1" xmlns="http://www.w3.org/2000/svg" version="1.1" viewBox="0 0 44.87 44.87">
  <!-- Generator: Adobe Illustrator 30.1.0, SVG Export Plug-In . SVG Version: 2.1.1 Build 136)  -->
  <defs>
    <style>
      .st0 {
        fill: #b2625e;
      }
    </style>
  </defs>
  <path class="st0" d="M22.43,43.74l-1.77-1.59-2.17-2.19c-5.56-5.97-9.51-13.24-11.47-21.16.85-.24,1.66-.51,2.48-.8.71-.25,1.18-.86,1.21-1.57.03-.75-.37-1.4-1.05-1.69s-1.43-.12-1.98.43l-.67-1.62c4.15-1.92,7.88-4.48,11.16-7.62l1-1,.87-.92c.86-.91,1.6-1.87,2.4-2.89.91,1.15,1.81,2.25,2.79,3.3,3.59,3.83,7.84,6.9,12.63,9.13l-.66,1.62c-.52-.53-1.25-.72-1.91-.45s-1.1.88-1.12,1.58.41,1.39,1.1,1.66c.84.33,1.7.58,2.59.85-1.94,7.82-5.73,15.1-11.26,20.93l-.87.92c-1.03,1.09-2.12,2.06-3.29,3.09h0ZM22.43,8.64c.84,1.02,1.65,1.95,2.57,2.84,1.56,1.5,3.23,2.8,5.07,3.94l1.32.77c-.03-.96.3-1.82.94-2.47-3.83-2.29-7.14-5.21-9.91-8.73-.96,1.25-1.98,2.36-3.08,3.46-2.06,2.04-4.35,3.8-6.82,5.27.67.65.99,1.53.94,2.48,2.28-1.26,4.34-2.76,6.21-4.55,1.01-.93,1.88-1.93,2.75-3.01h.01ZM20.48,38.09l1.9,1.91V12.82c-3.42,3.48-7.53,6.11-12.02,7.81,2.03,6.55,5.47,12.45,10.12,17.46Z"/>
</svg>